<svg xmlns="http://www.w3.org/2000/svg" viewBox="0 0 1600 900" width="1600" height="900" preserveAspectRatio="xMidYMid slice"><defs>
  <filter id="glow" x="-50%" y="-50%" width="200%" height="200%"><feGaussianBlur stdDeviation="6"/></filter>
  <filter id="softglow" x="-50%" y="-50%" width="200%" height="200%"><feGaussianBlur stdDeviation="28"/></filter>
  <filter id="haze" x="-20%" y="-20%" width="140%" height="140%"><feGaussianBlur stdDeviation="60"/></filter>
  <radialGradient id="faceG" cx="50%" cy="40%" r="65%"><stop offset="0" stop-color="#FFD36B"/><stop offset="0.6" stop-color="#F4B13C"/><stop offset="1" stop-color="#E58A22"/></radialGradient>
  <radialGradient id="haloG" cx="50%" cy="50%" r="50%"><stop offset="0" stop-color="#FBD596" stop-opacity="0.95"/><stop offset="0.55" stop-color="#E8AE45" stop-opacity="0.55"/><stop offset="1" stop-color="#820A14" stop-opacity="0"/></radialGradient>
  <radialGradient id="sanctum" cx="50%" cy="60%" r="70%"><stop offset="0" stop-color="#FFB547"/><stop offset="0.45" stop-color="#C2410C"/><stop offset="1" stop-color="#3A0212"/></radialGradient>
  <linearGradient id="goldV" x1="0" y1="0" x2="0" y2="1"><stop offset="0" stop-color="#FBD596"/><stop offset="1" stop-color="#C98A1E"/></linearGradient>
  <linearGradient id="crimsonV" x1="0" y1="0" x2="0" y2="1"><stop offset="0" stop-color="#A3121F"/><stop offset="1" stop-color="#6C020E"/></linearGradient>
  <linearGradient id="ground" x1="0" y1="0" x2="0" y2="1"><stop offset="0" stop-color="#3A0212" stop-opacity="0"/><stop offset="0.5" stop-color="#1C0107" stop-opacity="0.75"/><stop offset="1" stop-color="#1C0107" stop-opacity="0.95"/></linearGradient>
  <linearGradient id="sky" x1="0" y1="0" x2="0" y2="1"><stop offset="0" stop-color="#2A0A28"/><stop offset="0.55" stop-color="#5A1430"/><stop offset="1" stop-color="#9A2A1A"/></linearGradient>
</defs><rect width="1600" height="900" fill="url(#sky)"/><path d="M377.67694357989524,36.161268436015185 L379.1106367680723,41.896041188723544 L384.84540952078066,43.32973437690063 L379.1106367680723,44.76342756507772 L377.67694357989524,50.49820031778608 L376.24325039171816,44.76342756507772 L370.5084776390098,43.32973437690063 L376.24325039171816,41.896041188723544Z" fill="#FBD596" opacity="0.39"/><path d="M106.42415308734385,157.3245857390297 L108.6928811562842,166.39949801479108 L117.76779343204561,168.66822608373144 L108.6928811562842,170.9369541526718 L106.42415308734385,180.0118664284332 L104.1554250184035,170.9369541526718 L95.0805127426421,168.66822608373144 L104.1554250184035,166.39949801479108Z" fill="#FBD596" opacity="0.78"/><path d="M1224.2601640087014,84.9163937245349 L1225.918852021781,91.55114577685372 L1232.5536040741,93.20983378993341 L1225.918852021781,94.86852180301311 L1224.2601640087014,101.50327385533193 L1222.6014759956217,94.86852180301311 L1215.966723943303,93.20983378993341 L1222.6014759956217,91.55114577685372Z" fill="#FBD596" opacity="0.47"/><path d="M276.26324685659023,38.881779360611326 L277.4062875487165,43.45394212911639 L281.9784503172216,44.596982821242655 L277.4062875487165,45.74002351336892 L276.26324685659023,50.312186281873984 L275.120206164464,45.74002351336892 L270.54804339595887,44.596982821242655 L275.120206164464,43.45394212911639Z" fill="#FBD596" opacity="0.86"/><path d="M1326.272078045471,328.3904029066321 L1328.35279458714,336.7132690733071 L1336.6756607538148,338.79398561497584 L1328.35279458714,340.87470215664456 L1326.272078045471,349.19756832331956 L1324.1913615038022,340.87470215664456 L1315.8684953371273,338.79398561497584 L1324.1913615038022,336.7132690733071Z" fill="#FBD596" opacity="0.42"/><path d="M495.7599316792569,253.47459534248486 L497.73096321346287,261.35872147930866 L505.61508935028667,263.3297530135146 L497.73096321346287,265.3007845477206 L495.7599316792569,273.1849106845444 L493.78890014505095,265.3007845477206 L485.90477400822715,263.3297530135146 L493.78890014505095,261.35872147930866Z" fill="#FBD596" opacity="0.81"/><path d="M1408.081202177919,27.57485103690813 L1409.8505651918708,34.65230309271536 L1416.928017247678,36.42166610666717 L1409.8505651918708,38.19102912061898 L1408.081202177919,45.26848117642621 L1406.3118391639673,38.19102912061898 L1399.23438710816,36.42166610666717 L1406.3118391639673,34.65230309271536Z" fill="#FBD596" opacity="0.70"/><path d="M809.5260411366645,66.88317008044832 L811.0837817568007,73.11413256099326 L817.3147442373456,74.67187318112948 L811.0837817568007,76.22961380126571 L809.5260411366645,82.46057628181065 L807.9683005165283,76.22961380126571 L801.7373380359834,74.67187318112948 L807.9683005165283,73.11413256099326Z" fill="#FBD596" opacity="0.35"/><path d="M1495.341382239853,355.1222405210385 L1497.0176044311922,361.8271292863957 L1503.7224931965493,363.50335147773495 L1497.0176044311922,365.1795736690742 L1495.341382239853,371.8844624344314 L1493.6651600485136,365.1795736690742 L1486.9602712831565,363.50335147773495 L1493.6651600485136,361.8271292863957Z" fill="#FBD596" opacity="0.48"/><path d="M1454.1924630634983,229.3355187890441 L1456.4041706473045,238.18234912426837 L1465.2510009825287,240.39405670807443 L1456.4041706473045,242.6057642918805 L1454.1924630634983,251.45259462710476 L1451.980755479692,242.6057642918805 L1443.1339251444679,240.39405670807443 L1451.980755479692,238.18234912426837Z" fill="#FBD596" opacity="0.81"/><path d="M813.3958005324025,165.06603833780753 L815.1540604879065,172.09907815982348 L822.1871003099225,173.85733811532745 L815.1540604879065,175.61559807083142 L813.3958005324025,182.64863789284738 L811.6375405768986,175.61559807083142 L804.6045007548826,173.85733811532745 L811.6375405768986,172.09907815982348Z" fill="#FBD596" opacity="0.56"/><path d="M258.1129697945736,117.64613195267341 L260.213117504389,126.046722791935 L268.61370834365056,128.14687050175039 L260.213117504389,130.24701821156577 L258.1129697945736,138.64760905082736 L256.01282208475817,130.24701821156577 L247.61223124549662,128.14687050175039 L256.01282208475817,126.046722791935Z" fill="#FBD596" opacity="0.33"/><path d="M74.11519840562022,256.8238474338297 L75.36389154420617,261.8186199881735 L80.35866409854997,263.0673131267595 L75.36389154420617,264.31600626534544 L74.11519840562022,269.31077881968923 L72.86650526703427,264.31600626534544 L67.87173271269047,263.0673131267595 L72.86650526703427,261.8186199881735Z" fill="#FBD596" opacity="0.62"/><path d="M753.9841377839888,132.01594048392863 L756.3797839826642,141.59852527863015 L765.9623687773657,143.99417147730554 L756.3797839826642,146.38981767598094 L753.9841377839888,155.97240247068245 L751.5884915853134,146.38981767598094 L742.0059067906119,143.99417147730554 L751.5884915853134,141.59852527863015Z" fill="#FBD596" opacity="0.42"/><path d="M660.4714502517201,76.06033893807832 L662.2837142225857,83.30939482154083 L669.5327701060482,85.12165879240646 L662.2837142225857,86.9339227632721 L660.4714502517201,94.18297864673461 L658.6591862808544,86.9339227632721 L651.4101303973919,85.12165879240646 L658.6591862808544,83.30939482154083Z" fill="#FBD596" opacity="0.47"/><path d="M569.3292073717632,307.15057478999637 L570.6422776169628,312.4028557707947 L575.8945585977611,313.7159260159943 L570.6422776169628,315.02899626119387 L569.3292073717632,320.2812772419922 L568.0161371265636,315.02899626119387 L562.7638561457653,313.7159260159943 L568.0161371265636,312.4028557707947Z" fill="#FBD596" opacity="0.64"/><path d="M1446.9041624490524,37.918482325179596 L1447.8027388363166,41.51278787423672 L1451.3970443853739,42.411364261501 L1447.8027388363166,43.30994064876528 L1446.9041624490524,46.9042461978224 L1446.005586061788,43.30994064876528 L1442.4112805127309,42.411364261501 L1446.005586061788,41.51278787423672Z" fill="#FBD596" opacity="0.44"/><path d="M1224.2595861220414,252.5821341954502 L1225.439453593762,257.3016040823323 L1230.158923480644,258.4814715540528 L1225.439453593762,259.6613390257733 L1224.2595861220414,264.3808089126554 L1223.0797186503207,259.6613390257733 L1218.3602487634387,258.4814715540528 L1223.0797186503207,257.3016040823323Z" fill="#FBD596" opacity="0.50"/><path d="M284.06350959449117,188.4453864092177 L284.9320074949424,191.91937801102262 L288.40599909674734,192.78787591147386 L284.9320074949424,193.6563738119251 L284.06350959449117,197.13036541373003 L283.1950116940399,193.6563738119251 L279.721020092235,192.78787591147386 L283.1950116940399,191.91937801102262Z" fill="#FBD596" opacity="0.72"/><path d="M1433.4844465789163,391.1107676519935 L1435.4602513092746,399.0139865734266 L1443.3634702307077,400.9897913037849 L1435.4602513092746,402.9655960341432 L1433.4844465789163,410.8688149555763 L1431.508641848558,402.9655960341432 L1423.605422927125,400.9897913037849 L1431.508641848558,399.0139865734266Z" fill="#FBD596" opacity="0.88"/><path d="M29.100040469291955,109.65046246260917 L31.445651280440952,119.03290570720515 L40.82809452503694,121.37851651835415 L31.445651280440952,123.72412732950315 L29.100040469291955,133.10657057409912 L26.754429658142957,123.72412732950315 L17.37198641354697,121.37851651835415 L26.754429658142957,119.03290570720515Z" fill="#FBD596" opacity="0.77"/><path d="M656.6842897102008,387.22543051654395 L658.4771064645424,394.3966975339105 L665.6483734819091,396.18951428825216 L658.4771064645424,397.9823310425938 L656.6842897102008,405.15359805996036 L654.8914729558592,397.9823310425938 L647.7202059384925,396.18951428825216 L654.8914729558592,394.3966975339105Z" fill="#FBD596" opacity="0.79"/><path d="M469.45640585100216,72.8412481038211 L470.96703343417204,78.88375843650063 L477.00954376685155,80.3943860196705 L470.96703343417204,81.90501360284038 L469.45640585100216,87.94752393551991 L467.9457782678323,81.90501360284038 L461.90326793515277,80.3943860196705 L467.9457782678323,78.88375843650063Z" fill="#FBD596" opacity="0.38"/><path d="M610.6154155589302,397.31126357730653 L611.9455071256489,402.6316298441813 L617.2658733925236,403.9617214109 L611.9455071256489,405.2918129776187 L610.6154155589302,410.61217924449346 L609.2853239922115,405.2918129776187 L603.9649577253367,403.9617214109 L609.2853239922115,402.6316298441813Z" fill="#FBD596" opacity="0.31"/><path d="M71.67550867540041,60.94819300581032 L73.72950175511457,69.16416532466698 L81.94547407397124,71.21815840438116 L73.72950175511457,73.27215148409533 L71.67550867540041,81.488123802952 L69.62151559568625,73.27215148409533 L61.40554327682957,71.21815840438116 L69.62151559568625,69.16416532466698Z" fill="#FBD596" opacity="0.52"/><path d="M464.5347782546967,28.928940347279212 L466.9055760939477,38.41213170428322 L476.38876745095166,40.78292954353422 L466.9055760939477,43.15372738278523 L464.5347782546967,52.63691873978924 L462.1639804154457,43.15372738278523 L452.6807890584417,40.78292954353422 L462.1639804154457,38.41213170428322Z" fill="#FBD596" opacity="0.55"/><path d="M332.6669468118933,20.480434985688984 L333.55537981218515,24.03416698685635 L337.1091118133525,24.92259998714819 L333.55537981218515,25.81103298744003 L332.6669468118933,29.364764988607394 L331.77851381160144,25.81103298744003 L328.2247818104341,24.92259998714819 L331.77851381160144,24.03416698685635Z" fill="#FBD596" opacity="0.40"/><path d="M1082.923388130889,58.521885710712525 L1083.7888159175518,61.983596857364276 L1087.2505270642037,62.84902464402721 L1083.7888159175518,63.714452430690145 L1082.923388130889,67.1761635773419 L1082.057960344226,63.714452430690145 L1078.5962491975743,62.84902464402721 L1082.057960344226,61.983596857364276Z" fill="#FBD596" opacity="0.59"/><path d="M398.49384214202104,414.0291553159226 L399.4894793542361,418.0117041647829 L403.4720282030964,419.00734137699794 L399.4894793542361,420.002978589213 L398.49384214202104,423.9855274380733 L397.498204929806,420.002978589213 L393.5156560809457,419.00734137699794 L397.498204929806,418.0117041647829Z" fill="#FBD596" opacity="0.62"/><path d="M1238.0674004185885,160.01365795787436 L1240.4476522339107,169.5346652191631 L1249.9686594951993,171.91491703448526 L1240.4476522339107,174.29516884980742 L1238.0674004185885,183.81617611109615 L1235.6871486032662,174.29516884980742 L1226.1661413419777,171.91491703448526 L1235.6871486032662,169.5346652191631Z" fill="#FBD596" opacity="0.59"/><path d="M386.9794659473202,168.16649175332296 L387.83845664302396,171.602454536138 L391.274419425839,172.46144523184176 L387.83845664302396,173.32043592754553 L386.9794659473202,176.75639871036057 L386.1204752516164,173.32043592754553 L382.68451246880136,172.46144523184176 L386.1204752516164,171.602454536138Z" fill="#FBD596" opacity="0.55"/><path d="M397.73755845350803,362.8577980247568 L399.8672338444158,371.37649958838784 L408.38593540804686,373.5061749792956 L399.8672338444158,375.6358503702034 L397.73755845350803,384.15455193383445 L395.60788306260025,375.6358503702034 L387.0891814989692,373.5061749792956 L395.60788306260025,371.37649958838784Z" fill="#FBD596" opacity="0.60"/><path d="M50.64057155616233,100.9062248037553 L51.82839415468734,105.65751519785535 L56.57968454878739,106.84533779638036 L51.82839415468734,108.03316039490538 L50.64057155616233,112.78445078900543 L49.45274895763732,108.03316039490538 L44.701458563537265,106.84533779638036 L49.45274895763732,105.65751519785535Z" fill="#FBD596" opacity="0.42"/><path d="M370.3466465131605,360.14438259086404 L371.3733693416085,364.251273904656 L375.48026065540046,365.277996733104 L371.3733693416085,366.30471956155196 L370.3466465131605,370.4116108753439 L369.31992368471253,366.30471956155196 L365.2130323709206,365.277996733104 L369.31992368471253,364.251273904656Z" fill="#FBD596" opacity="0.33"/><path d="M1484.8530806841457,225.51999846489613 L1487.237993825512,235.05965103036152 L1496.7776463909775,237.44456417172788 L1487.237993825512,239.82947731309423 L1484.8530806841457,249.36912987855962 L1482.4681675427794,239.82947731309423 L1472.9285149773139,237.44456417172788 L1482.4681675427794,235.05965103036152Z" fill="#FBD596" opacity="0.54"/><path d="M1441.523452436536,264.3419942262648 L1443.5888247929192,272.6034836517977 L1451.8503142184522,274.66885600818097 L1443.5888247929192,276.7342283645642 L1441.523452436536,284.99571779009716 L1439.4580800801527,276.7342283645642 L1431.1965906546197,274.66885600818097 L1439.4580800801527,272.6034836517977Z" fill="#FBD596" opacity="0.75"/><path d="M790.8608363565527,33.334248611373866 L791.9983104276969,37.88414489595065 L796.5482067122737,39.021618967094845 L791.9983104276969,40.15909303823904 L790.8608363565527,44.708989322815825 L789.7233622854085,40.15909303823904 L785.1734660008317,39.021618967094845 L789.7233622854085,37.88414489595065Z" fill="#FBD596" opacity="0.82"/><path d="M1439.6189682977074,381.6297793620952 L1440.9575116328615,386.98395270271163 L1446.311684973478,388.32249603786573 L1440.9575116328615,389.66103937301983 L1439.6189682977074,395.0152127136363 L1438.2804249625533,389.66103937301983 L1432.926251621937,388.32249603786573 L1438.2804249625533,386.98395270271163Z" fill="#FBD596" opacity="0.69"/><path d="M1279.2074549281301,259.3288374018348 L1281.3111768021286,267.7437248978289 L1289.7260642981228,269.8474467718274 L1281.3111768021286,271.9511686458259 L1279.2074549281301,280.36605614181997 L1277.1037330541317,271.9511686458259 L1268.6888455581375,269.8474467718274 L1277.1037330541317,267.7437248978289Z" fill="#FBD596" opacity="0.62"/><path d="M1047.5715017485293,281.9567453694015 L1048.8007802216505,286.8738592618867 L1053.7178941141358,288.103137735008 L1048.8007802216505,289.33241620812925 L1047.5715017485293,294.24953010061444 L1046.342223275408,289.33241620812925 L1041.4251093829228,288.103137735008 L1046.342223275408,286.8738592618867Z" fill="#FBD596" opacity="0.85"/><g opacity="0.12" fill="none" stroke="#E8AE45"><circle cx="140" cy="140" r="220" stroke-width="2"/><circle cx="140" cy="140" r="189" stroke-width="2" stroke-dasharray="4 6"/><circle cx="140" cy="140" r="154" stroke-width="2"/><circle cx="140" cy="140" r="110" stroke-width="2" stroke-dasharray="4 6"/><circle cx="140" cy="140" r="66" stroke-width="2"/><path transform="rotate(0.0 140 140)" d="M140,-80 C126,-49.19999999999999 130,-18.400000000000006 140,-14.0 C150,-18.400000000000006 154,-49.19999999999999 140,-80Z" stroke-width="2"/><path transform="rotate(15.0 140 140)" d="M140,-80 C126,-49.19999999999999 130,-18.400000000000006 140,-14.0 C150,-18.400000000000006 154,-49.19999999999999 140,-80Z" stroke-width="2"/><path transform="rotate(30.0 140 140)" d="M140,-80 C126,-49.19999999999999 130,-18.400000000000006 140,-14.0 C150,-18.400000000000006 154,-49.19999999999999 140,-80Z" stroke-width="2"/><path transform="rotate(45.0 140 140)" d="M140,-80 C126,-49.19999999999999 130,-18.400000000000006 140,-14.0 C150,-18.400000000000006 154,-49.19999999999999 140,-80Z" stroke-width="2"/><path transform="rotate(60.0 140 140)" d="M140,-80 C126,-49.19999999999999 130,-18.400000000000006 140,-14.0 C150,-18.400000000000006 154,-49.19999999999999 140,-80Z" stroke-width="2"/><path transform="rotate(75.0 140 140)" d="M140,-80 C126,-49.19999999999999 130,-18.400000000000006 140,-14.0 C150,-18.400000000000006 154,-49.19999999999999 140,-80Z" stroke-width="2"/><path transform="rotate(90.0 140 140)" d="M140,-80 C126,-49.19999999999999 130,-18.400000000000006 140,-14.0 C150,-18.400000000000006 154,-49.19999999999999 140,-80Z" stroke-width="2"/><path transform="rotate(105.0 140 140)" d="M140,-80 C126,-49.19999999999999 130,-18.400000000000006 140,-14.0 C150,-18.400000000000006 154,-49.19999999999999 140,-80Z" stroke-width="2"/><path transform="rotate(120.0 140 140)" d="M140,-80 C126,-49.19999999999999 130,-18.400000000000006 140,-14.0 C150,-18.400000000000006 154,-49.19999999999999 140,-80Z" stroke-width="2"/><path transform="rotate(135.0 140 140)" d="M140,-80 C126,-49.19999999999999 130,-18.400000000000006 140,-14.0 C150,-18.400000000000006 154,-49.19999999999999 140,-80Z" stroke-width="2"/><path transform="rotate(150.0 140 140)" d="M140,-80 C126,-49.19999999999999 130,-18.400000000000006 140,-14.0 C150,-18.400000000000006 154,-49.19999999999999 140,-80Z" stroke-width="2"/><path transform="rotate(165.0 140 140)" d="M140,-80 C126,-49.19999999999999 130,-18.400000000000006 140,-14.0 C150,-18.400000000000006 154,-49.19999999999999 140,-80Z" stroke-width="2"/><path transform="rotate(180.0 140 140)" d="M140,-80 C126,-49.19999999999999 130,-18.400000000000006 140,-14.0 C150,-18.400000000000006 154,-49.19999999999999 140,-80Z" stroke-width="2"/><path transform="rotate(195.0 140 140)" d="M140,-80 C126,-49.19999999999999 130,-18.400000000000006 140,-14.0 C150,-18.400000000000006 154,-49.19999999999999 140,-80Z" stroke-width="2"/><path transform="rotate(210.0 140 140)" d="M140,-80 C126,-49.19999999999999 130,-18.400000000000006 140,-14.0 C150,-18.400000000000006 154,-49.19999999999999 140,-80Z" stroke-width="2"/><path transform="rotate(225.0 140 140)" d="M140,-80 C126,-49.19999999999999 130,-18.400000000000006 140,-14.0 C150,-18.400000000000006 154,-49.19999999999999 140,-80Z" stroke-width="2"/><path transform="rotate(240.0 140 140)" d="M140,-80 C126,-49.19999999999999 130,-18.400000000000006 140,-14.0 C150,-18.400000000000006 154,-49.19999999999999 140,-80Z" stroke-width="2"/><path transform="rotate(255.0 140 140)" d="M140,-80 C126,-49.19999999999999 130,-18.400000000000006 140,-14.0 C150,-18.400000000000006 154,-49.19999999999999 140,-80Z" stroke-width="2"/><path transform="rotate(270.0 140 140)" d="M140,-80 C126,-49.19999999999999 130,-18.400000000000006 140,-14.0 C150,-18.400000000000006 154,-49.19999999999999 140,-80Z" stroke-width="2"/><path transform="rotate(285.0 140 140)" d="M140,-80 C126,-49.19999999999999 130,-18.400000000000006 140,-14.0 C150,-18.400000000000006 154,-49.19999999999999 140,-80Z" stroke-width="2"/><path transform="rotate(300.0 140 140)" d="M140,-80 C126,-49.19999999999999 130,-18.400000000000006 140,-14.0 C150,-18.400000000000006 154,-49.19999999999999 140,-80Z" stroke-width="2"/><path transform="rotate(315.0 140 140)" d="M140,-80 C126,-49.19999999999999 130,-18.400000000000006 140,-14.0 C150,-18.400000000000006 154,-49.19999999999999 140,-80Z" stroke-width="2"/><path transform="rotate(330.0 140 140)" d="M140,-80 C126,-49.19999999999999 130,-18.400000000000006 140,-14.0 C150,-18.400000000000006 154,-49.19999999999999 140,-80Z" stroke-width="2"/><path transform="rotate(345.0 140 140)" d="M140,-80 C126,-49.19999999999999 130,-18.400000000000006 140,-14.0 C150,-18.400000000000006 154,-49.19999999999999 140,-80Z" stroke-width="2"/><path transform="rotate(0.0 140 140)" d="M140,30.0 Q122,52.0 140,74.0 Q158,52.0 140,30.0Z" stroke-width="1.6"/><path transform="rotate(22.5 140 140)" d="M140,30.0 Q122,52.0 140,74.0 Q158,52.0 140,30.0Z" stroke-width="1.6"/><path transform="rotate(45.0 140 140)" d="M140,30.0 Q122,52.0 140,74.0 Q158,52.0 140,30.0Z" stroke-width="1.6"/><path transform="rotate(67.5 140 140)" d="M140,30.0 Q122,52.0 140,74.0 Q158,52.0 140,30.0Z" stroke-width="1.6"/><path transform="rotate(90.0 140 140)" d="M140,30.0 Q122,52.0 140,74.0 Q158,52.0 140,30.0Z" stroke-width="1.6"/><path transform="rotate(112.5 140 140)" d="M140,30.0 Q122,52.0 140,74.0 Q158,52.0 140,30.0Z" stroke-width="1.6"/><path transform="rotate(135.0 140 140)" d="M140,30.0 Q122,52.0 140,74.0 Q158,52.0 140,30.0Z" stroke-width="1.6"/><path transform="rotate(157.5 140 140)" d="M140,30.0 Q122,52.0 140,74.0 Q158,52.0 140,30.0Z" stroke-width="1.6"/><path transform="rotate(180.0 140 140)" d="M140,30.0 Q122,52.0 140,74.0 Q158,52.0 140,30.0Z" stroke-width="1.6"/><path transform="rotate(202.5 140 140)" d="M140,30.0 Q122,52.0 140,74.0 Q158,52.0 140,30.0Z" stroke-width="1.6"/><path transform="rotate(225.0 140 140)" d="M140,30.0 Q122,52.0 140,74.0 Q158,52.0 140,30.0Z" stroke-width="1.6"/><path transform="rotate(247.5 140 140)" d="M140,30.0 Q122,52.0 140,74.0 Q158,52.0 140,30.0Z" stroke-width="1.6"/><path transform="rotate(270.0 140 140)" d="M140,30.0 Q122,52.0 140,74.0 Q158,52.0 140,30.0Z" stroke-width="1.6"/><path transform="rotate(292.5 140 140)" d="M140,30.0 Q122,52.0 140,74.0 Q158,52.0 140,30.0Z" stroke-width="1.6"/><path transform="rotate(315.0 140 140)" d="M140,30.0 Q122,52.0 140,74.0 Q158,52.0 140,30.0Z" stroke-width="1.6"/><path transform="rotate(337.5 140 140)" d="M140,30.0 Q122,52.0 140,74.0 Q158,52.0 140,30.0Z" stroke-width="1.6"/></g><g opacity="0.12" fill="none" stroke="#E8AE45"><circle cx="1460" cy="140" r="220" stroke-width="2"/><circle cx="1460" cy="140" r="189" stroke-width="2" stroke-dasharray="4 6"/><circle cx="1460" cy="140" r="154" stroke-width="2"/><circle cx="1460" cy="140" r="110" stroke-width="2" stroke-dasharray="4 6"/><circle cx="1460" cy="140" r="66" stroke-width="2"/><path transform="rotate(0.0 1460 140)" d="M1460,-80 C1446,-49.19999999999999 1450,-18.400000000000006 1460,-14.0 C1470,-18.400000000000006 1474,-49.19999999999999 1460,-80Z" stroke-width="2"/><path transform="rotate(15.0 1460 140)" d="M1460,-80 C1446,-49.19999999999999 1450,-18.400000000000006 1460,-14.0 C1470,-18.400000000000006 1474,-49.19999999999999 1460,-80Z" stroke-width="2"/><path transform="rotate(30.0 1460 140)" d="M1460,-80 C1446,-49.19999999999999 1450,-18.400000000000006 1460,-14.0 C1470,-18.400000000000006 1474,-49.19999999999999 1460,-80Z" stroke-width="2"/><path transform="rotate(45.0 1460 140)" d="M1460,-80 C1446,-49.19999999999999 1450,-18.400000000000006 1460,-14.0 C1470,-18.400000000000006 1474,-49.19999999999999 1460,-80Z" stroke-width="2"/><path transform="rotate(60.0 1460 140)" d="M1460,-80 C1446,-49.19999999999999 1450,-18.400000000000006 1460,-14.0 C1470,-18.400000000000006 1474,-49.19999999999999 1460,-80Z" stroke-width="2"/><path transform="rotate(75.0 1460 140)" d="M1460,-80 C1446,-49.19999999999999 1450,-18.400000000000006 1460,-14.0 C1470,-18.400000000000006 1474,-49.19999999999999 1460,-80Z" stroke-width="2"/><path transform="rotate(90.0 1460 140)" d="M1460,-80 C1446,-49.19999999999999 1450,-18.400000000000006 1460,-14.0 C1470,-18.400000000000006 1474,-49.19999999999999 1460,-80Z" stroke-width="2"/><path transform="rotate(105.0 1460 140)" d="M1460,-80 C1446,-49.19999999999999 1450,-18.400000000000006 1460,-14.0 C1470,-18.400000000000006 1474,-49.19999999999999 1460,-80Z" stroke-width="2"/><path transform="rotate(120.0 1460 140)" d="M1460,-80 C1446,-49.19999999999999 1450,-18.400000000000006 1460,-14.0 C1470,-18.400000000000006 1474,-49.19999999999999 1460,-80Z" stroke-width="2"/><path transform="rotate(135.0 1460 140)" d="M1460,-80 C1446,-49.19999999999999 1450,-18.400000000000006 1460,-14.0 C1470,-18.400000000000006 1474,-49.19999999999999 1460,-80Z" stroke-width="2"/><path transform="rotate(150.0 1460 140)" d="M1460,-80 C1446,-49.19999999999999 1450,-18.400000000000006 1460,-14.0 C1470,-18.400000000000006 1474,-49.19999999999999 1460,-80Z" stroke-width="2"/><path transform="rotate(165.0 1460 140)" d="M1460,-80 C1446,-49.19999999999999 1450,-18.400000000000006 1460,-14.0 C1470,-18.400000000000006 1474,-49.19999999999999 1460,-80Z" stroke-width="2"/><path transform="rotate(180.0 1460 140)" d="M1460,-80 C1446,-49.19999999999999 1450,-18.400000000000006 1460,-14.0 C1470,-18.400000000000006 1474,-49.19999999999999 1460,-80Z" stroke-width="2"/><path transform="rotate(195.0 1460 140)" d="M1460,-80 C1446,-49.19999999999999 1450,-18.400000000000006 1460,-14.0 C1470,-18.400000000000006 1474,-49.19999999999999 1460,-80Z" stroke-width="2"/><path transform="rotate(210.0 1460 140)" d="M1460,-80 C1446,-49.19999999999999 1450,-18.400000000000006 1460,-14.0 C1470,-18.400000000000006 1474,-49.19999999999999 1460,-80Z" stroke-width="2"/><path transform="rotate(225.0 1460 140)" d="M1460,-80 C1446,-49.19999999999999 1450,-18.400000000000006 1460,-14.0 C1470,-18.400000000000006 1474,-49.19999999999999 1460,-80Z" stroke-width="2"/><path transform="rotate(240.0 1460 140)" d="M1460,-80 C1446,-49.19999999999999 1450,-18.400000000000006 1460,-14.0 C1470,-18.400000000000006 1474,-49.19999999999999 1460,-80Z" stroke-width="2"/><path transform="rotate(255.0 1460 140)" d="M1460,-80 C1446,-49.19999999999999 1450,-18.400000000000006 1460,-14.0 C1470,-18.400000000000006 1474,-49.19999999999999 1460,-80Z" stroke-width="2"/><path transform="rotate(270.0 1460 140)" d="M1460,-80 C1446,-49.19999999999999 1450,-18.400000000000006 1460,-14.0 C1470,-18.400000000000006 1474,-49.19999999999999 1460,-80Z" stroke-width="2"/><path transform="rotate(285.0 1460 140)" d="M1460,-80 C1446,-49.19999999999999 1450,-18.400000000000006 1460,-14.0 C1470,-18.400000000000006 1474,-49.19999999999999 1460,-80Z" stroke-width="2"/><path transform="rotate(300.0 1460 140)" d="M1460,-80 C1446,-49.19999999999999 1450,-18.400000000000006 1460,-14.0 C1470,-18.400000000000006 1474,-49.19999999999999 1460,-80Z" stroke-width="2"/><path transform="rotate(315.0 1460 140)" d="M1460,-80 C1446,-49.19999999999999 1450,-18.400000000000006 1460,-14.0 C1470,-18.400000000000006 1474,-49.19999999999999 1460,-80Z" stroke-width="2"/><path transform="rotate(330.0 1460 140)" d="M1460,-80 C1446,-49.19999999999999 1450,-18.400000000000006 1460,-14.0 C1470,-18.400000000000006 1474,-49.19999999999999 1460,-80Z" stroke-width="2"/><path transform="rotate(345.0 1460 140)" d="M1460,-80 C1446,-49.19999999999999 1450,-18.400000000000006 1460,-14.0 C1470,-18.400000000000006 1474,-49.19999999999999 1460,-80Z" stroke-width="2"/><path transform="rotate(0.0 1460 140)" d="M1460,30.0 Q1442,52.0 1460,74.0 Q1478,52.0 1460,30.0Z" stroke-width="1.6"/><path transform="rotate(22.5 1460 140)" d="M1460,30.0 Q1442,52.0 1460,74.0 Q1478,52.0 1460,30.0Z" stroke-width="1.6"/><path transform="rotate(45.0 1460 140)" d="M1460,30.0 Q1442,52.0 1460,74.0 Q1478,52.0 1460,30.0Z" stroke-width="1.6"/><path transform="rotate(67.5 1460 140)" d="M1460,30.0 Q1442,52.0 1460,74.0 Q1478,52.0 1460,30.0Z" stroke-width="1.6"/><path transform="rotate(90.0 1460 140)" d="M1460,30.0 Q1442,52.0 1460,74.0 Q1478,52.0 1460,30.0Z" stroke-width="1.6"/><path transform="rotate(112.5 1460 140)" d="M1460,30.0 Q1442,52.0 1460,74.0 Q1478,52.0 1460,30.0Z" stroke-width="1.6"/><path transform="rotate(135.0 1460 140)" d="M1460,30.0 Q1442,52.0 1460,74.0 Q1478,52.0 1460,30.0Z" stroke-width="1.6"/><path transform="rotate(157.5 1460 140)" d="M1460,30.0 Q1442,52.0 1460,74.0 Q1478,52.0 1460,30.0Z" stroke-width="1.6"/><path transform="rotate(180.0 1460 140)" d="M1460,30.0 Q1442,52.0 1460,74.0 Q1478,52.0 1460,30.0Z" stroke-width="1.6"/><path transform="rotate(202.5 1460 140)" d="M1460,30.0 Q1442,52.0 1460,74.0 Q1478,52.0 1460,30.0Z" stroke-width="1.6"/><path transform="rotate(225.0 1460 140)" d="M1460,30.0 Q1442,52.0 1460,74.0 Q1478,52.0 1460,30.0Z" stroke-width="1.6"/><path transform="rotate(247.5 1460 140)" d="M1460,30.0 Q1442,52.0 1460,74.0 Q1478,52.0 1460,30.0Z" stroke-width="1.6"/><path transform="rotate(270.0 1460 140)" d="M1460,30.0 Q1442,52.0 1460,74.0 Q1478,52.0 1460,30.0Z" stroke-width="1.6"/><path transform="rotate(292.5 1460 140)" d="M1460,30.0 Q1442,52.0 1460,74.0 Q1478,52.0 1460,30.0Z" stroke-width="1.6"/><path transform="rotate(315.0 1460 140)" d="M1460,30.0 Q1442,52.0 1460,74.0 Q1478,52.0 1460,30.0Z" stroke-width="1.6"/><path transform="rotate(337.5 1460 140)" d="M1460,30.0 Q1442,52.0 1460,74.0 Q1478,52.0 1460,30.0Z" stroke-width="1.6"/></g><path d="M-20,90 Q300.0,240 620,120" stroke="#2A0A0E" stroke-width="2" fill="none" opacity="0.7"/><circle cx="15.6" cy="111.8" r="9" fill="#FF9F43" opacity="0.55" filter="url(#glow)"/><circle cx="15.6" cy="111.8" r="4" fill="#FF9F43"/><circle cx="51.1" cy="126.0" r="9" fill="#FFE29A" opacity="0.55" filter="url(#glow)"/><circle cx="51.1" cy="126.0" r="4" fill="#FFE29A"/><circle cx="86.7" cy="138.5" r="9" fill="#FBD596" opacity="0.55" filter="url(#glow)"/><circle cx="86.7" cy="138.5" r="4" fill="#FBD596"/><circle cx="122.2" cy="149.3" r="9" fill="#FF9F43" opacity="0.55" filter="url(#glow)"/><circle cx="122.2" cy="149.3" r="4" fill="#FF9F43"/><circle cx="157.8" cy="158.5" r="9" fill="#FFE29A" opacity="0.55" filter="url(#glow)"/><circle cx="157.8" cy="158.5" r="4" fill="#FFE29A"/><circle cx="193.3" cy="166.0" r="9" fill="#FBD596" opacity="0.55" filter="url(#glow)"/><circle cx="193.3" cy="166.0" r="4" fill="#FBD596"/><circle cx="228.9" cy="171.8" r="9" fill="#FF9F43" opacity="0.55" filter="url(#glow)"/><circle cx="228.9" cy="171.8" r="4" fill="#FF9F43"/><circle cx="264.4" cy="176.0" r="9" fill="#FFE29A" opacity="0.55" filter="url(#glow)"/><circle cx="264.4" cy="176.0" r="4" fill="#FFE29A"/><circle cx="300.0" cy="178.5" r="9" fill="#FBD596" opacity="0.55" filter="url(#glow)"/><circle cx="300.0" cy="178.5" r="4" fill="#FBD596"/><circle cx="335.6" cy="179.3" r="9" fill="#FF9F43" opacity="0.55" filter="url(#glow)"/><circle cx="335.6" cy="179.3" r="4" fill="#FF9F43"/><circle cx="371.1" cy="178.5" r="9" fill="#FFE29A" opacity="0.55" filter="url(#glow)"/><circle cx="371.1" cy="178.5" r="4" fill="#FFE29A"/><circle cx="406.7" cy="176.0" r="9" fill="#FBD596" opacity="0.55" filter="url(#glow)"/><circle cx="406.7" cy="176.0" r="4" fill="#FBD596"/><circle cx="442.2" cy="171.8" r="9" fill="#FF9F43" opacity="0.55" filter="url(#glow)"/><circle cx="442.2" cy="171.8" r="4" fill="#FF9F43"/><circle cx="477.8" cy="166.0" r="9" fill="#FFE29A" opacity="0.55" filter="url(#glow)"/><circle cx="477.8" cy="166.0" r="4" fill="#FFE29A"/><circle cx="513.3" cy="158.5" r="9" fill="#FBD596" opacity="0.55" filter="url(#glow)"/><circle cx="513.3" cy="158.5" r="4" fill="#FBD596"/><circle cx="548.9" cy="149.3" r="9" fill="#FF9F43" opacity="0.55" filter="url(#glow)"/><circle cx="548.9" cy="149.3" r="4" fill="#FF9F43"/><circle cx="584.4" cy="138.5" r="9" fill="#FFE29A" opacity="0.55" filter="url(#glow)"/><circle cx="584.4" cy="138.5" r="4" fill="#FFE29A"/><path d="M980,120 Q1300.0,240 1620,90" stroke="#2A0A0E" stroke-width="2" fill="none" opacity="0.7"/><circle cx="1015.6" cy="138.5" r="9" fill="#FF9F43" opacity="0.55" filter="url(#glow)"/><circle cx="1015.6" cy="138.5" r="4" fill="#FF9F43"/><circle cx="1051.1" cy="149.3" r="9" fill="#FFE29A" opacity="0.55" filter="url(#glow)"/><circle cx="1051.1" cy="149.3" r="4" fill="#FFE29A"/><circle cx="1086.7" cy="158.5" r="9" fill="#FBD596" opacity="0.55" filter="url(#glow)"/><circle cx="1086.7" cy="158.5" r="4" fill="#FBD596"/><circle cx="1122.2" cy="166.0" r="9" fill="#FF9F43" opacity="0.55" filter="url(#glow)"/><circle cx="1122.2" cy="166.0" r="4" fill="#FF9F43"/><circle cx="1157.8" cy="171.8" r="9" fill="#FFE29A" opacity="0.55" filter="url(#glow)"/><circle cx="1157.8" cy="171.8" r="4" fill="#FFE29A"/><circle cx="1193.3" cy="176.0" r="9" fill="#FBD596" opacity="0.55" filter="url(#glow)"/><circle cx="1193.3" cy="176.0" r="4" fill="#FBD596"/><circle cx="1228.9" cy="178.5" r="9" fill="#FF9F43" opacity="0.55" filter="url(#glow)"/><circle cx="1228.9" cy="178.5" r="4" fill="#FF9F43"/><circle cx="1264.4" cy="179.3" r="9" fill="#FFE29A" opacity="0.55" filter="url(#glow)"/><circle cx="1264.4" cy="179.3" r="4" fill="#FFE29A"/><circle cx="1300.0" cy="178.5" r="9" fill="#FBD596" opacity="0.55" filter="url(#glow)"/><circle cx="1300.0" cy="178.5" r="4" fill="#FBD596"/><circle cx="1335.6" cy="176.0" r="9" fill="#FF9F43" opacity="0.55" filter="url(#glow)"/><circle cx="1335.6" cy="176.0" r="4" fill="#FF9F43"/><circle cx="1371.1" cy="171.8" r="9" fill="#FFE29A" opacity="0.55" filter="url(#glow)"/><circle cx="1371.1" cy="171.8" r="4" fill="#FFE29A"/><circle cx="1406.7" cy="166.0" r="9" fill="#FBD596" opacity="0.55" filter="url(#glow)"/><circle cx="1406.7" cy="166.0" r="4" fill="#FBD596"/><circle cx="1442.2" cy="158.5" r="9" fill="#FF9F43" opacity="0.55" filter="url(#glow)"/><circle cx="1442.2" cy="158.5" r="4" fill="#FF9F43"/><circle cx="1477.8" cy="149.3" r="9" fill="#FFE29A" opacity="0.55" filter="url(#glow)"/><circle cx="1477.8" cy="149.3" r="4" fill="#FFE29A"/><circle cx="1513.3" cy="138.5" r="9" fill="#FBD596" opacity="0.55" filter="url(#glow)"/><circle cx="1513.3" cy="138.5" r="4" fill="#FBD596"/><circle cx="1548.9" cy="126.0" r="9" fill="#FF9F43" opacity="0.55" filter="url(#glow)"/><circle cx="1548.9" cy="126.0" r="4" fill="#FF9F43"/><circle cx="1584.4" cy="111.8" r="9" fill="#FFE29A" opacity="0.55" filter="url(#glow)"/><circle cx="1584.4" cy="111.8" r="4" fill="#FFE29A"/><pattern id="stripe" width="60" height="10" patternUnits="userSpaceOnUse"><rect width="30" height="10" fill="#820A14"/><rect x="30" width="30" height="10" fill="#E8A13A"/></pattern><ellipse cx="800" cy="480" rx="560" ry="320" fill="#FF8A3D" opacity="0.22" filter="url(#haze)"/><path d="M390.0,760 L390.0,380 L800,210 L1210.0,380 L1210.0,760Z" fill="url(#stripe)" stroke="#4A0A10" stroke-width="4"/><path d="M370.0,390 L800,200 L1230.0,390" stroke="url(#goldV)" stroke-width="14" fill="none" stroke-linejoin="round"/><path d="M390.0,380 Q415.0,420 440.0,380Z" fill="#E8AE45" stroke="#9A5B0E" stroke-width="2"/><path d="M440.0,380 Q465.0,420 490.0,380Z" fill="#E8AE45" stroke="#9A5B0E" stroke-width="2"/><path d="M490.0,380 Q515.0,420 540.0,380Z" fill="#E8AE45" stroke="#9A5B0E" stroke-width="2"/><path d="M540.0,380 Q565.0,420 590.0,380Z" fill="#E8AE45" stroke="#9A5B0E" stroke-width="2"/><path d="M590.0,380 Q615.0,420 640.0,380Z" fill="#E8AE45" stroke="#9A5B0E" stroke-width="2"/><path d="M640.0,380 Q665.0,420 690.0,380Z" fill="#E8AE45" stroke="#9A5B0E" stroke-width="2"/><path d="M690.0,380 Q715.0,420 740.0,380Z" fill="#E8AE45" stroke="#9A5B0E" stroke-width="2"/><path d="M740.0,380 Q765.0,420 790.0,380Z" fill="#E8AE45" stroke="#9A5B0E" stroke-width="2"/><path d="M790.0,380 Q815.0,420 840.0,380Z" fill="#E8AE45" stroke="#9A5B0E" stroke-width="2"/><path d="M840.0,380 Q865.0,420 890.0,380Z" fill="#E8AE45" stroke="#9A5B0E" stroke-width="2"/><path d="M890.0,380 Q915.0,420 940.0,380Z" fill="#E8AE45" stroke="#9A5B0E" stroke-width="2"/><path d="M940.0,380 Q965.0,420 990.0,380Z" fill="#E8AE45" stroke="#9A5B0E" stroke-width="2"/><path d="M990.0,380 Q1015.0,420 1040.0,380Z" fill="#E8AE45" stroke="#9A5B0E" stroke-width="2"/><path d="M1040.0,380 Q1065.0,420 1090.0,380Z" fill="#E8AE45" stroke="#9A5B0E" stroke-width="2"/><path d="M1090.0,380 Q1115.0,420 1140.0,380Z" fill="#E8AE45" stroke="#9A5B0E" stroke-width="2"/><path d="M1140.0,380 Q1165.0,420 1190.0,380Z" fill="#E8AE45" stroke="#9A5B0E" stroke-width="2"/><circle cx="380" cy="390" r="7" fill="#FBD596" opacity="0.45" filter="url(#glow)"/><circle cx="380" cy="390" r="3" fill="#FBD596"/><circle cx="404" cy="380" r="7" fill="#FBD596" opacity="0.45" filter="url(#glow)"/><circle cx="404" cy="380" r="3" fill="#FBD596"/><circle cx="428" cy="369" r="7" fill="#FBD596" opacity="0.45" filter="url(#glow)"/><circle cx="428" cy="369" r="3" fill="#FBD596"/><circle cx="451" cy="359" r="7" fill="#FBD596" opacity="0.45" filter="url(#glow)"/><circle cx="451" cy="359" r="3" fill="#FBD596"/><circle cx="475" cy="348" r="7" fill="#FBD596" opacity="0.45" filter="url(#glow)"/><circle cx="475" cy="348" r="3" fill="#FBD596"/><circle cx="499" cy="338" r="7" fill="#FBD596" opacity="0.45" filter="url(#glow)"/><circle cx="499" cy="338" r="3" fill="#FBD596"/><circle cx="523" cy="327" r="7" fill="#FBD596" opacity="0.45" filter="url(#glow)"/><circle cx="523" cy="327" r="3" fill="#FBD596"/><circle cx="547" cy="317" r="7" fill="#FBD596" opacity="0.45" filter="url(#glow)"/><circle cx="547" cy="317" r="3" fill="#FBD596"/><circle cx="570" cy="306" r="7" fill="#FBD596" opacity="0.45" filter="url(#glow)"/><circle cx="570" cy="306" r="3" fill="#FBD596"/><circle cx="594" cy="296" r="7" fill="#FBD596" opacity="0.45" filter="url(#glow)"/><circle cx="594" cy="296" r="3" fill="#FBD596"/><circle cx="618" cy="285" r="7" fill="#FBD596" opacity="0.45" filter="url(#glow)"/><circle cx="618" cy="285" r="3" fill="#FBD596"/><circle cx="642" cy="275" r="7" fill="#FBD596" opacity="0.45" filter="url(#glow)"/><circle cx="642" cy="275" r="3" fill="#FBD596"/><circle cx="666" cy="264" r="7" fill="#FBD596" opacity="0.45" filter="url(#glow)"/><circle cx="666" cy="264" r="3" fill="#FBD596"/><circle cx="689" cy="254" r="7" fill="#FBD596" opacity="0.45" filter="url(#glow)"/><circle cx="689" cy="254" r="3" fill="#FBD596"/><circle cx="713" cy="243" r="7" fill="#FBD596" opacity="0.45" filter="url(#glow)"/><circle cx="713" cy="243" r="3" fill="#FBD596"/><circle cx="737" cy="233" r="7" fill="#FBD596" opacity="0.45" filter="url(#glow)"/><circle cx="737" cy="233" r="3" fill="#FBD596"/><circle cx="761" cy="222" r="7" fill="#FBD596" opacity="0.45" filter="url(#glow)"/><circle cx="761" cy="222" r="3" fill="#FBD596"/><circle cx="784" cy="212" r="7" fill="#FBD596" opacity="0.45" filter="url(#glow)"/><circle cx="784" cy="212" r="3" fill="#FBD596"/><circle cx="800" cy="205" r="7" fill="#FBD596" opacity="0.45" filter="url(#glow)"/><circle cx="800" cy="205" r="3" fill="#FBD596"/><circle cx="824" cy="215" r="7" fill="#FBD596" opacity="0.45" filter="url(#glow)"/><circle cx="824" cy="215" r="3" fill="#FBD596"/><circle cx="848" cy="226" r="7" fill="#FBD596" opacity="0.45" filter="url(#glow)"/><circle cx="848" cy="226" r="3" fill="#FBD596"/><circle cx="871" cy="236" r="7" fill="#FBD596" opacity="0.45" filter="url(#glow)"/><circle cx="871" cy="236" r="3" fill="#FBD596"/><circle cx="895" cy="247" r="7" fill="#FBD596" opacity="0.45" filter="url(#glow)"/><circle cx="895" cy="247" r="3" fill="#FBD596"/><circle cx="919" cy="257" r="7" fill="#FBD596" opacity="0.45" filter="url(#glow)"/><circle cx="919" cy="257" r="3" fill="#FBD596"/><circle cx="943" cy="268" r="7" fill="#FBD596" opacity="0.45" filter="url(#glow)"/><circle cx="943" cy="268" r="3" fill="#FBD596"/><circle cx="967" cy="278" r="7" fill="#FBD596" opacity="0.45" filter="url(#glow)"/><circle cx="967" cy="278" r="3" fill="#FBD596"/><circle cx="990" cy="289" r="7" fill="#FBD596" opacity="0.45" filter="url(#glow)"/><circle cx="990" cy="289" r="3" fill="#FBD596"/><circle cx="1014" cy="299" r="7" fill="#FBD596" opacity="0.45" filter="url(#glow)"/><circle cx="1014" cy="299" r="3" fill="#FBD596"/><circle cx="1038" cy="310" r="7" fill="#FBD596" opacity="0.45" filter="url(#glow)"/><circle cx="1038" cy="310" r="3" fill="#FBD596"/><circle cx="1062" cy="320" r="7" fill="#FBD596" opacity="0.45" filter="url(#glow)"/><circle cx="1062" cy="320" r="3" fill="#FBD596"/><circle cx="1086" cy="331" r="7" fill="#FBD596" opacity="0.45" filter="url(#glow)"/><circle cx="1086" cy="331" r="3" fill="#FBD596"/><circle cx="1109" cy="341" r="7" fill="#FBD596" opacity="0.45" filter="url(#glow)"/><circle cx="1109" cy="341" r="3" fill="#FBD596"/><circle cx="1133" cy="352" r="7" fill="#FBD596" opacity="0.45" filter="url(#glow)"/><circle cx="1133" cy="352" r="3" fill="#FBD596"/><circle cx="1157" cy="362" r="7" fill="#FBD596" opacity="0.45" filter="url(#glow)"/><circle cx="1157" cy="362" r="3" fill="#FBD596"/><circle cx="1181" cy="373" r="7" fill="#FBD596" opacity="0.45" filter="url(#glow)"/><circle cx="1181" cy="373" r="3" fill="#FBD596"/><circle cx="1204" cy="383" r="7" fill="#FBD596" opacity="0.45" filter="url(#glow)"/><circle cx="1204" cy="383" r="3" fill="#FBD596"/><clipPath id="clip800520"><path d="M610.0,760 L610.0,520 C610.0,470.5 731.6,452.5 800.0,430 C868.4,452.5 990.0,470.5 990.0,520 L990.0,760Z"/></clipPath><path d="M610.0,760 L610.0,520 C610.0,470.5 731.6,452.5 800.0,430 C868.4,452.5 990.0,470.5 990.0,520 L990.0,760Z" fill="url(#sanctum)"/><g clip-path="url(#clip800520)"><g transform="translate(800 620.0) scale(0.62)"><circle r="230" fill="url(#haloG)" filter="url(#softglow)"/><circle r="168" fill="none" stroke="#E8AE45" stroke-width="5" stroke-dasharray="2 10" stroke-linecap="round"/><path transform="rotate(0.0)" d="M0,-182 Q-12,-160 0,-148 Q12,-160 0,-182Z" fill="#E8AE45" opacity="0.9"/><path transform="rotate(12.857142857142858)" d="M0,-182 Q-12,-160 0,-148 Q12,-160 0,-182Z" fill="#E8AE45" opacity="0.9"/><path transform="rotate(25.714285714285715)" d="M0,-182 Q-12,-160 0,-148 Q12,-160 0,-182Z" fill="#E8AE45" opacity="0.9"/><path transform="rotate(38.57142857142857)" d="M0,-182 Q-12,-160 0,-148 Q12,-160 0,-182Z" fill="#E8AE45" opacity="0.9"/><path transform="rotate(51.42857142857143)" d="M0,-182 Q-12,-160 0,-148 Q12,-160 0,-182Z" fill="#E8AE45" opacity="0.9"/><path transform="rotate(64.28571428571429)" d="M0,-182 Q-12,-160 0,-148 Q12,-160 0,-182Z" fill="#E8AE45" opacity="0.9"/><path transform="rotate(77.14285714285714)" d="M0,-182 Q-12,-160 0,-148 Q12,-160 0,-182Z" fill="#E8AE45" opacity="0.9"/><path transform="rotate(90.0)" d="M0,-182 Q-12,-160 0,-148 Q12,-160 0,-182Z" fill="#E8AE45" opacity="0.9"/><path transform="rotate(102.85714285714286)" d="M0,-182 Q-12,-160 0,-148 Q12,-160 0,-182Z" fill="#E8AE45" opacity="0.9"/><path transform="rotate(115.71428571428571)" d="M0,-182 Q-12,-160 0,-148 Q12,-160 0,-182Z" fill="#E8AE45" opacity="0.9"/><path transform="rotate(128.57142857142858)" d="M0,-182 Q-12,-160 0,-148 Q12,-160 0,-182Z" fill="#E8AE45" opacity="0.9"/><path transform="rotate(141.42857142857142)" d="M0,-182 Q-12,-160 0,-148 Q12,-160 0,-182Z" fill="#E8AE45" opacity="0.9"/><path transform="rotate(154.28571428571428)" d="M0,-182 Q-12,-160 0,-148 Q12,-160 0,-182Z" fill="#E8AE45" opacity="0.9"/><path transform="rotate(167.14285714285714)" d="M0,-182 Q-12,-160 0,-148 Q12,-160 0,-182Z" fill="#E8AE45" opacity="0.9"/><path transform="rotate(180.0)" d="M0,-182 Q-12,-160 0,-148 Q12,-160 0,-182Z" fill="#E8AE45" opacity="0.9"/><path transform="rotate(192.85714285714286)" d="M0,-182 Q-12,-160 0,-148 Q12,-160 0,-182Z" fill="#E8AE45" opacity="0.9"/><path transform="rotate(205.71428571428572)" d="M0,-182 Q-12,-160 0,-148 Q12,-160 0,-182Z" fill="#E8AE45" opacity="0.9"/><path transform="rotate(218.57142857142858)" d="M0,-182 Q-12,-160 0,-148 Q12,-160 0,-182Z" fill="#E8AE45" opacity="0.9"/><path transform="rotate(231.42857142857142)" d="M0,-182 Q-12,-160 0,-148 Q12,-160 0,-182Z" fill="#E8AE45" opacity="0.9"/><path transform="rotate(244.28571428571428)" d="M0,-182 Q-12,-160 0,-148 Q12,-160 0,-182Z" fill="#E8AE45" opacity="0.9"/><path transform="rotate(257.14285714285717)" d="M0,-182 Q-12,-160 0,-148 Q12,-160 0,-182Z" fill="#E8AE45" opacity="0.9"/><path transform="rotate(270.0)" d="M0,-182 Q-12,-160 0,-148 Q12,-160 0,-182Z" fill="#E8AE45" opacity="0.9"/><path transform="rotate(282.85714285714283)" d="M0,-182 Q-12,-160 0,-148 Q12,-160 0,-182Z" fill="#E8AE45" opacity="0.9"/><path transform="rotate(295.7142857142857)" d="M0,-182 Q-12,-160 0,-148 Q12,-160 0,-182Z" fill="#E8AE45" opacity="0.9"/><path transform="rotate(308.57142857142856)" d="M0,-182 Q-12,-160 0,-148 Q12,-160 0,-182Z" fill="#E8AE45" opacity="0.9"/><path transform="rotate(321.42857142857144)" d="M0,-182 Q-12,-160 0,-148 Q12,-160 0,-182Z" fill="#E8AE45" opacity="0.9"/><path transform="rotate(334.2857142857143)" d="M0,-182 Q-12,-160 0,-148 Q12,-160 0,-182Z" fill="#E8AE45" opacity="0.9"/><path transform="rotate(347.14285714285717)" d="M0,-182 Q-12,-160 0,-148 Q12,-160 0,-182Z" fill="#E8AE45" opacity="0.9"/><ellipse cx="0" cy="5" rx="118" ry="128" fill="#1B1035"/><path d="M-118,-30 C-118,-120 -60,-160 0,-165 C60,-160 118,-120 118,-30 C80,-62 40,-74 0,-76 C-40,-74 -80,-62 -118,-30Z" fill="url(#goldV)" stroke="#9A5B0E" stroke-width="3"/><path d="M-20,-160 Q0,-235 20,-160Z" fill="url(#goldV)" stroke="#9A5B0E" stroke-width="3"/><path d="M-8,-170 Q0,-205 8,-170 Q0,-160 -8,-170Z" fill="#820A14"/><path d="M-79,-77.0 Q-70,-103.0 -61,-77.0 Q-70,-67.0 -79,-77.0Z" fill="#820A14"/><path d="M-44,-94.5 Q-35,-120.5 -26,-94.5 Q-35,-84.5 -44,-94.5Z" fill="#820A14"/><path d="M-9,-112.0 Q0,-138.0 9,-112.0 Q0,-102.0 -9,-112.0Z" fill="#820A14"/><path d="M26,-94.5 Q35,-120.5 44,-94.5 Q35,-84.5 26,-94.5Z" fill="#820A14"/><path d="M61,-77.0 Q70,-103.0 79,-77.0 Q70,-67.0 61,-77.0Z" fill="#820A14"/><path d="M-100,-62 C-60,-86 60,-86 100,-62" stroke="#820A14" stroke-width="5" fill="none"/><path d="M-92,-40 C-140,-30 -140,40 -96,50 C-112,20 -110,-10 -92,-40Z" fill="url(#goldV)"/><path d="M-108,-6 Q-120,14 -104,30 Q-98,10 -108,-6Z" fill="#820A14"/><circle cx="-84" cy="66" r="13" fill="none" stroke="#E8AE45" stroke-width="6"/><path d="M92,-40 C140,-30 140,40 96,50 C112,20 110,-10 92,-40Z" fill="url(#goldV)"/><path d="M108,-6 Q120,14 104,30 Q98,10 108,-6Z" fill="#820A14"/><circle cx="84" cy="66" r="13" fill="none" stroke="#E8AE45" stroke-width="6"/><path d="M-80,-40 C-82,40 -55,105 0,118 C55,105 82,40 80,-40 C60,-62 -60,-62 -80,-40Z" fill="url(#faceG)"/><path d="M-8,-8 C-30,-30 -60,-28 -78,-8" stroke="#1B1035" stroke-width="7" fill="none" stroke-linecap="round"/><path d="M8,-8 C30,-30 60,-28 78,-8" stroke="#1B1035" stroke-width="7" fill="none" stroke-linecap="round"/><path d="M-10,14 C-30,-6 -58,-6 -82,6 C-58,28 -30,28 -10,14Z" fill="#FFF4E0" stroke="#1B1035" stroke-width="5" stroke-linejoin="round"/><circle cx="-42" cy="12" r="11" fill="#1B1035"/><circle cx="-39" cy="9" r="3" fill="#fff"/><path d="M-82,6 L-96,0" stroke="#1B1035" stroke-width="5" stroke-linecap="round"/><path d="M10,14 C30,-6 58,-6 82,6 C58,28 30,28 10,14Z" fill="#FFF4E0" stroke="#1B1035" stroke-width="5" stroke-linejoin="round"/><circle cx="42" cy="12" r="11" fill="#1B1035"/><circle cx="39" cy="9" r="3" fill="#fff"/><path d="M82,6 L96,0" stroke="#1B1035" stroke-width="5" stroke-linecap="round"/><path d="M0,-58 C10,-46 10,-32 0,-22 C-10,-32 -10,-46 0,-58Z" fill="#FFF4E0" stroke="#1B1035" stroke-width="4"/><circle cx="0" cy="-40" r="5" fill="#1B1035"/><path d="M-14,-18 Q0,-8 14,-18" stroke="#820A14" stroke-width="4" fill="none"/><circle cx="0" cy="-2" r="6" fill="#820A14"/><path d="M-4,20 C-6,44 -14,56 -10,62 Q0,68 10,62" stroke="#B5651D" stroke-width="4" fill="none" stroke-linecap="round"/><circle cx="22" cy="72" r="22" fill="none" stroke="#E8AE45" stroke-width="3"/><circle cx="40" cy="84" r="5" fill="#820A14"/><path d="M-22,86 Q-10,78 0,82 Q10,78 22,86 Q10,98 0,98 Q-10,98 -22,86Z" fill="#C81E2A"/><path d="M-70,112 Q0,170 70,112" stroke="#E8AE45" stroke-width="12" fill="none"/><circle cx="-64.0" cy="116.0" r="5" fill="#820A14"/><circle cx="-48.0" cy="136.1" r="5" fill="#820A14"/><circle cx="-32.0" cy="150.5" r="5" fill="#820A14"/><circle cx="-16.0" cy="159.1" r="5" fill="#820A14"/><circle cx="0.0" cy="162.0" r="5" fill="#820A14"/><circle cx="16.0" cy="159.1" r="5" fill="#820A14"/><circle cx="32.0" cy="150.5" r="5" fill="#820A14"/><circle cx="48.0" cy="136.1" r="5" fill="#820A14"/><circle cx="64.0" cy="116.0" r="5" fill="#820A14"/></g></g><path d="M610.0,760 L610.0,520 C610.0,470.5 731.6,452.5 800.0,430 C868.4,452.5 990.0,470.5 990.0,520 L990.0,760Z" fill="none" stroke="url(#goldV)" stroke-width="10"/><path d="M80,260 Q420.0,360 760,300" stroke="#2A0A0E" stroke-width="2" fill="none"/><path d="M85,266 L117,266 L101,300Z" fill="#820A14"/><path d="M128,277 L160,277 L144,311Z" fill="#E8AE45"/><path d="M170,287 L202,287 L186,321Z" fill="#E85D04"/><path d="M213,296 L245,296 L229,330Z" fill="#FFFDF6"/><path d="M255,304 L287,304 L271,338Z" fill="#3E8E41"/><path d="M298,310 L330,310 L314,344Z" fill="#820A14"/><path d="M340,315 L372,315 L356,349Z" fill="#E8AE45"/><path d="M383,319 L415,319 L399,353Z" fill="#E85D04"/><path d="M425,321 L457,321 L441,355Z" fill="#FFFDF6"/><path d="M468,322 L500,322 L484,356Z" fill="#3E8E41"/><path d="M510,322 L542,322 L526,356Z" fill="#820A14"/><path d="M553,321 L585,321 L569,355Z" fill="#E8AE45"/><path d="M595,319 L627,319 L611,353Z" fill="#E85D04"/><path d="M638,315 L670,315 L654,349Z" fill="#FFFDF6"/><path d="M680,310 L712,310 L696,344Z" fill="#3E8E41"/><path d="M723,304 L755,304 L739,338Z" fill="#820A14"/><path d="M840,300 Q1180.0,360 1520,260" stroke="#2A0A0E" stroke-width="2" fill="none"/><path d="M845,304 L877,304 L861,338Z" fill="#820A14"/><path d="M888,310 L920,310 L904,344Z" fill="#E8AE45"/><path d="M930,315 L962,315 L946,349Z" fill="#E85D04"/><path d="M973,319 L1005,319 L989,353Z" fill="#FFFDF6"/><path d="M1015,321 L1047,321 L1031,355Z" fill="#3E8E41"/><path d="M1058,322 L1090,322 L1074,356Z" fill="#820A14"/><path d="M1100,322 L1132,322 L1116,356Z" fill="#E8AE45"/><path d="M1143,321 L1175,321 L1159,355Z" fill="#E85D04"/><path d="M1185,319 L1217,319 L1201,353Z" fill="#FFFDF6"/><path d="M1228,315 L1260,315 L1244,349Z" fill="#3E8E41"/><path d="M1270,310 L1302,310 L1286,344Z" fill="#820A14"/><path d="M1313,304 L1345,304 L1329,338Z" fill="#E8AE45"/><path d="M1355,296 L1387,296 L1371,330Z" fill="#E85D04"/><path d="M1398,287 L1430,287 L1414,321Z" fill="#FFFDF6"/><path d="M1440,277 L1472,277 L1456,311Z" fill="#3E8E41"/><path d="M1483,266 L1515,266 L1499,300Z" fill="#820A14"/><g><rect x="60" y="640" width="150" height="110" fill="#3A0A10"/><path d="M50,640 L220,640 L210,610 L60,610Z" fill="#820A14"/><circle cx="135" cy="600" r="8" fill="#FFE29A"/><circle cx="135" cy="600" r="24" fill="#FFE29A" opacity="0.4" filter="url(#glow)"/></g><g><rect x="1390" y="640" width="150" height="110" fill="#3A0A10"/><path d="M1380,640 L1550,640 L1540,610 L1390,610Z" fill="#E8AE45"/><circle cx="1465" cy="600" r="8" fill="#FFE29A"/><circle cx="1465" cy="600" r="24" fill="#FFE29A" opacity="0.4" filter="url(#glow)"/></g><rect y="558" width="1600" height="342" fill="url(#ground)"/><radialGradient id="vig" cx="50%" cy="45%" r="75%"><stop offset="0.6" stop-color="#000" stop-opacity="0"/><stop offset="1" stop-color="#000" stop-opacity="0.45"/></radialGradient><rect width="1600" height="900" fill="url(#vig)"/><g fill="#1C0107" opacity="0.92"><circle cx="-35" cy="718" r="23"/><path d="M-93,900 C-93,767 -66,747 -35,747 C-3,747 24,767 24,900Z"/><circle cx="-18" cy="713" r="23"/><path d="M-78,900 C-78,764 -50,743 -18,743 C14,743 42,764 42,900Z"/><circle cx="35" cy="713" r="23"/><path d="M-25,900 C-25,764 2,743 35,743 C67,743 95,764 95,900Z"/><line x1="81" y1="736" x2="104" y2="597" stroke="#1C0107" stroke-width="2"/><ellipse cx="104" cy="574" rx="21" ry="25" fill="#E85D04"/><circle cx="62" cy="732" r="21"/><path d="M8,900 C8,778 33,759 62,759 C91,759 116,778 116,900Z"/><circle cx="85" cy="735" r="20"/><path d="M32,900 C32,780 56,762 85,762 C113,762 138,780 138,900Z"/><circle cx="155" cy="710" r="23"/><path d="M94,900 C94,762 122,741 155,741 C188,741 216,762 216,900Z"/><circle cx="174" cy="770" r="16"/><path d="M133,900 C133,805 152,791 174,791 C197,791 216,805 216,900Z"/><circle cx="241" cy="767" r="16"/><path d="M198,900 C198,803 218,789 241,789 C264,789 284,803 284,900Z"/><circle cx="327" cy="757" r="18"/><path d="M281,900 C281,796 302,780 327,780 C352,780 373,796 373,900Z"/><circle cx="916" cy="772" r="16"/><path d="M875,900 C875,807 894,793 916,793 C938,793 957,807 957,900Z"/><line x1="948" y1="788" x2="964" y2="694" stroke="#1C0107" stroke-width="2"/><ellipse cx="964" cy="678" rx="14" ry="17" fill="#E85D04"/><circle cx="1027" cy="711" r="23"/><path d="M966,900 C966,762 994,741 1027,741 C1060,741 1088,762 1088,900Z"/><circle cx="1081" cy="751" r="18"/><path d="M1033,900 C1033,791 1055,775 1081,775 C1107,775 1129,791 1129,900Z"/><line x1="1118" y1="769" x2="1136" y2="658" stroke="#1C0107" stroke-width="2"/><ellipse cx="1136" cy="640" rx="17" ry="20" fill="#E85D04"/><circle cx="1083" cy="743" r="19"/><path d="M1032,900 C1032,786 1056,768 1083,768 C1110,768 1133,786 1133,900Z"/><line x1="1122" y1="762" x2="1141" y2="646" stroke="#1C0107" stroke-width="2"/><ellipse cx="1141" cy="627" rx="17" ry="21" fill="#E8AE45"/><circle cx="1214" cy="748" r="19"/><path d="M1165,900 C1165,789 1188,772 1214,772 C1240,772 1263,789 1263,900Z"/><circle cx="1432" cy="714" r="23"/><path d="M1373,900 C1373,765 1400,744 1432,744 C1464,744 1492,765 1492,900Z"/><circle cx="1470" cy="770" r="16"/><path d="M1428,900 C1428,805 1448,791 1470,791 C1493,791 1512,805 1512,900Z"/><circle cx="1510" cy="719" r="22"/><path d="M1451,900 C1451,768 1478,748 1510,748 C1541,748 1568,768 1568,900Z"/><circle cx="1518" cy="704" r="24"/><path d="M1455,900 C1455,757 1484,736 1518,736 C1552,736 1581,757 1581,900Z"/><circle cx="1567" cy="725" r="22"/><path d="M1510,900 C1510,772 1536,753 1567,753 C1597,753 1623,772 1623,900Z"/><circle cx="1576" cy="731" r="21"/><path d="M1521,900 C1521,777 1546,758 1576,758 C1605,758 1630,777 1630,900Z"/><circle cx="1587" cy="730" r="21"/><path d="M1533,900 C1533,776 1558,757 1587,757 C1617,757 1642,776 1642,900Z"/><circle cx="1591" cy="741" r="20"/><path d="M1540,900 C1540,784 1564,767 1591,767 C1619,767 1642,784 1642,900Z"/><line x1="1631" y1="761" x2="1650" y2="643" stroke="#1C0107" stroke-width="2"/><ellipse cx="1650" cy="624" rx="18" ry="22" fill="#E85D04"/></g></svg>